<svg xmlns="http://www.w3.org/2000/svg" width="1024" height="1024" viewBox="0 0 1024 1024">
<g>
<path d="M 1022.64 473.14 C1023.00,479.11 1023.46,484.00 1023.65,484.00 C1023.84,484.00 1024.00,375.10 1024.00,242.00 L 1024.00 1024.00 L 0.00 1024.00 L 0.00 0.00 L 1024.00 0.00 L 775.25 0.15 C638.44,0.23 540.52,0.61 540.52,1.06 C540.52,1.08 540.68,1.10 541.00,1.11 C759.39,13.46 943.98,161.13 1004.59,371.99 C1013.76,403.92 1020.85,443.60 1022.64,473.14 ZM 488.00 769.52 C492.12,771.28 496.04,772.52 496.71,772.27 C497.37,772.02 499.02,769.95 500.37,767.66 C502.56,763.95 507.40,757.53 515.95,747.04 L 518.76 743.58 L 528.06 747.81 C533.17,750.14 537.66,751.70 538.04,751.27 C538.42,750.85 541.01,747.07 543.80,742.88 C550.12,733.41 559.53,721.63 567.87,712.77 C573.15,707.16 574.79,706.00 577.43,706.00 C581.67,706.00 589.18,710.88 592.96,716.10 L 596.00 720.30 L 596.00 738.03 C596.00,752.75 596.26,755.97 597.54,757.03 C598.77,758.06 602.68,758.07 617.55,757.13 C639.77,755.72 650.68,753.65 668.24,747.51 C713.91,731.54 724.51,729.03 746.32,729.01 C758.64,729.00 759.00,728.72 759.00,719.01 L 759.00 711.09 L 762.29 710.47 C764.10,710.13 770.51,709.55 776.54,709.18 L 787.50 708.50 L 787.81 705.30 C788.08,702.47 787.68,701.87 784.24,700.12 C776.43,696.14 770.49,687.50 767.65,676.00 C763.83,660.48 763.68,655.45 763.29,522.87 L 762.91 393.24 L 748.97 381.91 C697.06,339.69 608.64,288.42 543.26,262.63 C521.44,254.02 513.78,251.88 501.50,250.97 C492.75,250.32 488.15,249.35 479.00,246.22 C451.98,237.00 437.88,239.50 381.50,263.50 C336.35,282.72 328.10,285.25 302.00,287.90 L 285.50 289.57 L 285.21 297.60 C284.87,307.16 285.23,307.62 295.39,310.87 C308.89,315.19 328.07,323.24 343.33,330.98 C359.60,339.23 372.61,347.17 408.00,370.44 C419.83,378.21 431.86,386.07 434.75,387.89 C437.64,389.72 440.00,391.61 440.00,392.10 C440.00,392.15 440.00,392.20 440.00,392.24 C440.01,392.41 440.01,392.55 439.95,392.65 C439.69,393.12 438.19,392.89 429.95,391.64 L 428.50 391.42 C414.40,389.27 380.18,388.45 365.47,389.91 C306.64,395.74 266.83,415.71 247.84,448.90 L 243.50 456.48 L 243.24 558.49 C243.04,638.98 243.25,661.00 244.24,662.88 C244.98,664.28 247.56,666.06 250.50,667.20 C253.25,668.26 262.25,672.08 270.50,675.67 C297.47,687.42 299.46,688.29 303.50,690.09 C305.70,691.08 315.60,695.31 325.50,699.51 C335.40,703.70 344.85,707.75 346.50,708.50 C350.99,710.53 358.70,713.88 366.00,716.96 C374.26,720.44 414.52,737.75 418.50,739.53 C420.15,740.27 428.02,743.66 436.00,747.06 C443.98,750.46 452.32,754.06 454.54,755.05 C458.70,756.91 474.75,763.85 488.00,769.52 ZM 0.18 248.75 C0.29,383.71 0.50,492.06 0.66,492.06 C0.66,492.06 0.66,492.04 0.67,492.00 C2.14,464.72 5.60,435.29 9.94,413.31 C27.01,326.75 65.93,246.55 123.87,178.50 C134.96,165.48 165.77,134.64 178.50,123.83 C265.29,50.10 370.44,7.80 483.50,1.12 C483.81,1.10 483.96,1.08 483.96,1.06 C483.96,0.61 386.78,0.23 248.75,0.15 L 0.00 0.00 ZM 0.15 775.25 L 0.00 1024.00 L 243.25 1023.86 C382.43,1023.78 475.34,1023.40 475.35,1022.92 C475.35,1022.90 475.23,1022.88 475.00,1022.86 C433.58,1019.79 386.96,1010.17 347.08,996.47 C149.21,928.49 13.47,749.58 1.12,540.50 C1.10,540.19 1.08,540.04 1.06,540.04 C0.61,540.04 0.23,637.22 0.15,775.25 ZM 550.00 1022.89 C549.83,1022.90 549.74,1022.91 549.74,1022.93 C549.74,1023.39 647.32,1023.78 781.75,1023.86 L 1024.00 1024.00 L 1023.84 781.75 C1023.75,649.69 1023.54,542.97 1023.36,542.97 C1023.35,542.97 1023.35,542.98 1023.35,543.00 C1023.17,544.92 1022.54,552.08 1021.95,558.89 C1013.95,651.33 978.20,744.08 921.49,819.50 C832.73,937.56 698.41,1011.09 550.00,1022.89 ZM 426.90 661.05 C426.43,661.29 426.00,661.52 425.59,661.74 C424.04,662.58 422.92,663.18 422.11,662.90 C419.97,662.15 419.98,655.25 420.00,630.12 C420.00,627.60 420.00,624.90 420.00,622.00 L 420.00 581.00 L 427.05 581.00 C441.29,581.00 460.49,575.03 470.58,567.46 C472.65,565.91 476.10,564.81 481.08,564.11 C497.36,561.84 509.65,555.59 521.50,543.59 C530.78,534.19 536.38,524.90 541.18,511.00 C544.32,501.89 544.45,500.91 544.36,487.00 C544.29,476.00 543.79,470.63 542.27,464.75 C539.90,455.55 540.12,455.40 549.61,459.89 C564.03,466.71 581.48,480.49 590.14,491.90 L 595.00 498.30 L 595.00 576.26 C595.00,650.10 594.91,654.18 593.25,653.51 C587.51,651.21 571.70,648.00 561.90,647.14 C548.01,645.92 484.33,646.52 474.17,647.97 C457.81,650.30 436.30,656.26 426.90,661.05 ZM 595.00 392.94 C595.00,416.07 594.66,434.97 594.25,434.92 C593.84,434.88 586.39,431.32 577.71,427.01 C561.04,418.73 544.88,412.39 525.38,406.49 C518.89,404.52 513.54,402.81 513.50,402.70 C512.58,400.26 496.30,380.13 489.80,373.40 C484.96,368.40 481.00,363.79 481.00,363.17 C481.00,361.88 482.34,361.55 493.50,360.03 C502.62,358.79 527.23,350.78 556.26,339.61 C567.13,335.42 577.16,332.00 578.55,332.00 C582.17,332.00 588.51,335.49 590.76,338.73 C594.60,344.24 595.00,349.32 595.00,392.94 ZM 456.51 549.64 C453.77,551.49 450.78,553.00 449.87,553.00 C446.93,553.00 436.51,544.45 431.76,538.14 C423.30,526.88 419.68,513.23 420.18,494.50 C420.50,482.59 420.53,482.46 424.32,476.25 C431.63,464.30 443.43,453.83 457.72,446.63 C466.08,442.42 467.61,442.85 471.06,450.47 C472.67,454.02 475.19,460.88 476.67,465.72 C479.18,473.95 479.35,475.74 479.40,494.50 C479.45,513.71 479.35,514.79 476.80,521.83 C472.00,535.07 466.08,543.19 456.51,549.64 ZM 499.93 554.11 C492.54,557.78 484.00,559.13 484.00,556.64 C484.00,555.74 484.40,555.00 484.88,555.00 C487.73,555.00 501.14,532.66 505.05,521.40 C513.32,497.58 510.98,470.66 499.01,452.02 C494.42,444.87 494.80,443.85 501.75,444.62 C508.43,445.37 526.06,449.63 527.07,450.74 C527.45,451.16 528.47,453.75 529.36,456.50 C535.04,474.25 535.96,497.53 531.64,514.25 C526.46,534.27 517.68,545.31 499.93,554.11 ZM 495.49 399.01 C495.16,399.55 494.35,399.94 493.69,399.86 C493.04,399.79 488.23,399.09 483.00,398.32 C473.92,396.97 473.37,396.74 470.56,393.20 C465.51,386.85 457.72,379.86 452.21,376.75 C446.70,373.64 445.94,371.69 450.08,371.24 C451.41,371.09 455.09,370.23 458.26,369.32 C463.18,367.92 464.39,367.87 466.54,369.02 C470.30,371.04 496.20,397.86 495.49,399.01 ZM 595.00 457.49 C595.00,463.27 594.65,468.00 594.21,468.00 C593.78,468.00 591.96,465.59 590.17,462.64 C586.22,456.12 578.48,447.93 570.75,442.10 C565.29,437.98 563.76,436.00 566.02,436.00 C568.32,436.00 588.74,443.12 591.75,444.97 L 595.00 446.97 ZM 440.15 556.25 C439.05,557.35 427.15,558.10 422.75,557.34 L 420.00 556.87 L 420.00 542.93 C420.00,535.27 420.20,529.00 420.44,529.00 C420.68,529.00 422.37,531.81 424.19,535.25 C426.04,538.73 430.52,544.54 434.33,548.37 C438.94,553.00 440.84,555.56 440.15,556.25 ZM 386.87 685.34 C387.71,686.36 387.43,687.19 385.66,688.85 C382.99,691.36 382.00,690.82 382.00,686.83 C382.00,684.73 382.48,684.00 383.88,684.00 C384.91,684.00 386.25,684.60 386.87,685.34 Z" fill="rgb(57,86,34)"/>
<path d="M 488.00 769.52 C474.75,763.85 458.70,756.91 454.54,755.05 C452.32,754.06 443.98,750.46 436.00,747.06 C428.02,743.66 420.15,740.27 418.50,739.53 C414.52,737.75 374.26,720.44 366.00,716.96 C358.70,713.88 350.99,710.53 346.50,708.50 C344.85,707.75 335.40,703.70 325.50,699.51 C315.60,695.31 305.70,691.08 303.50,690.09 C299.46,688.29 297.47,687.42 270.50,675.67 C262.25,672.08 253.25,668.26 250.50,667.20 C247.56,666.06 244.98,664.28 244.24,662.88 C243.25,661.00 243.04,638.98 243.24,558.49 L 243.50 456.48 L 247.84 448.90 C266.83,415.71 306.64,395.74 365.47,389.91 C380.18,388.45 414.40,389.27 428.50,391.42 L 429.95 391.64 L 429.95 391.64 C438.19,392.89 439.69,393.12 439.95,392.65 C440.01,392.55 440.01,392.41 440.00,392.24 C440.00,392.20 440.00,392.15 440.00,392.10 C440.00,391.61 437.64,389.72 434.75,387.89 C431.86,386.07 419.83,378.21 408.00,370.44 C372.61,347.17 359.60,339.23 343.33,330.98 C328.07,323.24 308.89,315.19 295.39,310.87 C285.23,307.62 284.87,307.16 285.21,297.60 L 285.50 289.57 L 302.00 287.90 C328.10,285.25 336.35,282.72 381.50,263.50 C437.88,239.50 451.98,237.00 479.00,246.22 C488.15,249.35 492.75,250.32 501.50,250.97 C513.78,251.88 521.44,254.02 543.26,262.63 C500.10,245.60 491.99,246.35 428.40,273.31 C388.49,290.22 375.52,294.32 355.75,296.27 C348.24,297.01 344.00,297.84 344.00,298.58 C344.00,299.21 348.16,301.19 353.25,302.98 C392.26,316.71 431.90,339.61 465.00,367.56 C465.69,368.14 466.42,368.77 467.17,369.43 C466.92,369.25 466.71,369.11 466.54,369.02 C464.39,367.87 463.18,367.92 458.26,369.32 C455.09,370.23 451.41,371.09 450.08,371.24 C445.94,371.69 446.70,373.64 452.21,376.75 C457.72,379.86 465.51,386.85 470.56,393.20 C472.73,395.94 473.55,396.70 478.02,397.52 C451.99,394.44 417.21,394.31 398.00,397.43 C351.30,405.00 318.97,423.43 305.40,450.20 L 303.00 454.93 L 303.00 648.70 L 336.25 663.00 C406.94,693.41 473.72,722.92 518.73,743.63 L 515.95 747.04 C507.40,757.53 502.56,763.95 500.37,767.66 C499.02,769.95 497.37,772.02 496.71,772.27 C496.04,772.52 492.12,771.28 488.00,769.52 ZM 595.00 457.49 L 595.00 446.97 L 591.75 444.97 C591.71,444.95 591.66,444.92 591.61,444.89 C599.09,448.18 606.06,451.96 612.18,456.12 C621.38,462.37 632.66,472.76 639.41,481.19 L 645.68 489.02 L 646.29 590.22 C646.63,645.89 646.78,691.55 646.64,691.69 C646.50,691.84 644.67,689.72 642.59,686.98 C631.73,672.76 612.35,660.10 589.94,652.60 C588.27,652.05 586.55,651.53 584.80,651.04 C588.33,651.89 591.35,652.75 593.25,653.51 C594.91,654.18 595.00,650.10 595.00,576.26 L 595.00 498.30 L 590.14 491.90 C581.48,480.49 564.03,466.71 549.61,459.89 C542.12,456.35 540.41,455.69 541.18,460.10 C540.81,458.91 540.41,457.88 539.99,457.06 C539.56,456.20 537.97,452.12 536.45,448.00 C534.94,443.88 532.60,438.29 531.25,435.59 L 528.81 430.69 L 537.65 431.33 C546.92,432.00 556.45,433.62 565.78,436.01 C563.87,436.15 565.49,438.13 570.75,442.10 C578.48,447.93 586.22,456.12 590.17,462.64 C591.96,465.59 593.78,468.00 594.21,468.00 C594.65,468.00 595.00,463.27 595.00,457.49 ZM 595.00 392.94 C595.00,349.32 594.60,344.24 590.76,338.73 C588.51,335.49 582.17,332.00 578.55,332.00 C577.16,332.00 567.13,335.42 556.26,339.61 C549.52,342.20 543.02,344.63 536.89,346.83 C540.68,345.43 544.71,343.92 549.00,342.27 C594.07,325.02 607.08,321.39 620.87,322.21 C632.73,322.92 638.70,326.74 643.20,336.51 C645.50,341.49 645.50,341.56 645.79,395.50 C645.94,425.20 645.94,455.18 645.79,462.11 L 645.50 474.73 L 637.50 467.29 C622.49,453.34 604.81,441.02 584.69,430.45 C590.06,433.06 593.96,434.89 594.25,434.92 C594.66,434.97 595.00,416.07 595.00,392.94 ZM 573.15 707.64 C580.54,700.62 587.71,695.18 593.93,692.03 C615.00,681.40 631.75,684.94 644.06,702.64 C646.88,706.69 646.95,707.10 647.22,721.64 L 647.50 736.50 L 659.50 736.28 C674.76,735.99 689.32,733.22 706.29,727.37 C737.79,716.51 749.79,712.57 760.79,710.75 L 759.00 711.09 L 759.00 719.01 C759.00,728.72 758.64,729.00 746.32,729.01 C724.51,729.03 713.91,731.54 668.24,747.51 C650.68,753.65 639.77,755.72 617.55,757.13 C602.68,758.07 598.77,758.06 597.54,757.03 C596.26,755.97 596.00,752.75 596.00,738.03 L 596.00 720.30 L 592.96 716.10 C589.18,710.88 581.67,706.00 577.43,706.00 C575.96,706.00 574.80,706.36 573.15,707.64 ZM 456.51 549.64 C466.08,543.19 472.00,535.07 476.80,521.83 C479.35,514.79 479.45,513.71 479.40,494.50 C479.35,475.74 479.18,473.95 476.67,465.72 C475.19,460.88 472.67,454.02 471.06,450.47 C467.99,443.69 466.44,442.60 460.24,445.41 C465.52,442.84 471.25,440.52 477.44,438.45 C487.72,435.01 507.91,431.00 514.94,431.00 C518.64,431.00 518.73,431.10 522.26,438.75 C524.71,444.05 526.72,448.91 528.34,453.57 C527.79,452.11 527.30,451.00 527.07,450.74 C526.06,449.63 508.43,445.37 501.75,444.62 C494.80,443.85 494.42,444.87 499.01,452.02 C510.98,470.66 513.32,497.58 505.05,521.40 C501.14,532.66 487.73,555.00 484.88,555.00 C484.40,555.00 484.00,555.74 484.00,556.64 C484.00,558.78 490.28,558.09 496.74,555.53 C494.32,556.54 491.97,557.31 489.50,557.93 C483.41,559.47 472.14,559.98 465.95,559.00 C458.82,557.87 452.43,555.42 446.20,551.40 C447.79,552.40 449.09,553.00 449.87,553.00 C450.78,553.00 453.77,551.49 456.51,549.64 ZM 426.90 661.05 C436.30,656.26 457.81,650.30 474.17,647.97 C480.93,647.01 511.36,646.42 535.07,646.49 C515.94,647.49 496.27,651.27 479.00,657.69 C461.81,664.09 438.34,677.11 423.72,688.37 L 420.00 691.24 L 420.00 642.08 C420.05,657.55 420.36,662.29 422.11,662.90 C422.92,663.18 424.04,662.58 425.59,661.74 C426.00,661.52 426.43,661.29 426.90,661.05 ZM 440.15 556.25 C440.71,555.69 439.57,553.91 436.68,550.80 C446.64,559.35 459.61,564.00 474.30,564.00 C480.31,564.00 485.81,563.39 490.98,562.10 C487.84,562.96 484.55,563.63 481.08,564.11 C476.10,564.81 472.65,565.91 470.58,567.46 C460.49,575.03 441.29,581.00 427.05,581.00 L 420.03 581.00 C420.05,572.11 420.08,563.96 420.11,556.89 L 422.75 557.34 C427.15,558.10 439.05,557.35 440.15,556.25 ZM 481.11 360.53 C485.76,361.08 491.38,360.64 499.00,358.94 C496.80,359.46 494.96,359.83 493.50,360.03 C482.34,361.55 481.00,361.88 481.00,363.17 C481.00,363.79 484.96,368.40 489.80,373.40 C491.84,375.52 494.86,378.96 498.06,382.76 C494.46,378.70 490.49,374.47 487.12,371.18 L 475.50 359.87 ZM 386.87 685.34 C386.25,684.60 384.91,684.00 383.88,684.00 C382.48,684.00 382.00,684.73 382.00,686.83 C382.00,690.82 382.99,691.36 385.66,688.85 C387.43,687.19 387.71,686.36 386.87,685.34 ZM 537.73 751.34 C538.77,750.14 540.90,747.19 543.19,743.75 C549.39,734.45 556.25,725.63 563.20,717.90 C556.19,725.87 548.96,735.15 543.80,742.88 C541.01,747.07 538.42,750.85 538.04,751.27 C538.00,751.32 537.89,751.35 537.73,751.34 ZM 445.01 550.61 C444.32,550.14 443.63,549.65 442.95,549.15 C436.25,544.19 431.07,538.28 427.36,531.25 C428.64,533.65 430.11,535.94 431.76,538.14 C434.95,542.37 440.69,547.62 445.01,550.61 ZM 506.79 393.47 C510.39,398.02 513.14,401.74 513.50,402.70 C513.46,402.60 510.50,398.53 506.79,393.47 ZM 480.37 381.96 C486.82,388.40 492.63,394.69 494.64,397.52 C492.44,394.62 486.36,388.06 480.37,381.96 ZM 530.29 533.17 C527.75,536.78 524.87,540.17 521.50,543.59 C518.32,546.81 515.12,549.61 511.81,552.04 C514.90,549.73 517.95,547.05 521.00,544.00 C524.63,540.37 527.66,536.87 530.29,533.17 ZM 542.73 466.64 C543.56,470.36 544.00,474.15 544.22,479.59 C543.93,474.92 543.41,470.46 542.73,466.64 ZM 531.87 513.31 C530.40,519.84 528.25,525.70 525.41,530.88 C527.97,526.11 529.99,520.64 531.64,514.25 C531.72,513.94 531.80,513.63 531.87,513.31 ZM 544.28 497.31 C544.04,502.44 543.28,504.90 541.18,511.00 C540.45,513.11 539.70,515.12 538.93,517.03 C539.69,515.13 540.43,513.12 541.16,511.00 C543.22,504.99 543.99,502.34 544.28,497.31 ZM 558.28 418.15 C547.83,413.86 536.86,409.96 525.38,406.49 C537.30,410.10 547.97,413.87 558.28,418.15 ZM 439.79 458.45 C433.54,463.76 428.27,469.79 424.32,476.25 C428.35,469.67 433.50,463.74 439.79,458.45 ZM 531.12 462.80 C532.30,467.48 533.10,472.12 533.59,476.99 C533.05,472.13 532.23,467.34 531.12,462.80 ZM 508.03 549.52 C511.09,547.53 513.80,545.40 516.22,543.08 C513.75,545.49 511.01,547.65 508.03,549.52 ZM 423.98 534.81 C424.34,535.49 424.72,536.16 425.10,536.82 C424.75,536.26 424.45,535.73 424.19,535.25 C422.37,531.82 420.69,529.01 420.44,529.00 C420.69,529.01 422.28,531.62 423.98,534.81 ZM 768.64 709.77 C770.59,709.59 772.64,709.43 774.88,709.29 C772.71,709.43 770.56,709.60 768.64,709.77 Z" fill="rgb(122,92,1)"/>
<path d="M 5.44 583.48 C11.97,629.33 24.50,673.39 42.32,714.73 C24.10,672.72 11.54,628.45 5.44,583.48 ZM 0.58 483.62 C0.89,482.43 1.51,476.87 2.04,470.43 C3.34,454.64 5.36,438.99 8.08,423.51 C4.62,443.94 1.92,468.75 0.67,492.00 C0.66,492.04 0.66,492.06 0.66,492.06 C0.63,492.06 0.60,489.13 0.58,483.62 ZM 1022.64 473.14 C1021.15,448.51 1015.97,416.83 1008.98,388.48 C1016.28,417.20 1020.99,445.89 1022.64,473.14 ZM 367.49 1002.96 C402.33,1013.19 440.47,1020.30 475.00,1022.86 C438.59,1020.16 402.51,1013.42 367.49,1002.96 ZM 0.16 751.86 C0.27,626.37 0.64,540.04 1.06,540.04 C1.08,540.04 1.10,540.19 1.12,540.50 C1.37,544.73 1.67,548.94 2.02,553.15 C1.64,549.74 1.31,546.97 1.10,545.50 C1.10,545.45 1.09,545.43 1.08,545.43 C0.67,545.43 0.28,634.93 0.16,751.86 ZM 470.89 2.01 C474.26,1.63 477.02,1.31 478.50,1.10 C478.55,1.10 478.57,1.09 478.57,1.08 C478.57,0.67 389.13,0.28 272.25,0.16 C397.68,0.27 483.96,0.64 483.96,1.06 C483.96,1.08 483.81,1.10 483.50,1.12 C479.29,1.37 475.08,1.67 470.89,2.01 ZM 716.23 0.20 C617.45,0.35 545.91,0.70 545.91,1.07 C545.91,1.08 545.94,1.08 546.00,1.09 C547.61,1.30 550.57,1.63 554.13,2.02 C549.77,1.66 545.39,1.36 541.00,1.11 C540.68,1.10 540.52,1.08 540.52,1.06 C540.52,0.68 611.14,0.35 716.23,0.20 ZM 926.96 211.96 C936.97,225.76 946.32,240.12 954.97,255.00 C962.89,268.63 970.26,282.94 976.99,297.69 C962.97,267.25 946.18,238.58 926.96,211.96 Z" fill="rgb(129,144,119)"/>
<path d="M 495.49 399.01 C495.58,398.87 495.27,398.34 494.64,397.52 C492.63,394.69 486.82,388.40 480.37,381.96 C474.85,376.32 469.41,371.07 467.17,369.43 C466.42,368.77 465.69,368.14 465.00,367.56 C431.90,339.61 392.26,316.71 353.25,302.98 C348.16,301.19 344.00,299.21 344.00,298.58 C344.00,297.84 348.24,297.01 355.75,296.27 C375.52,294.32 388.49,290.22 428.40,273.31 C491.99,246.35 500.10,245.60 543.26,262.63 C608.64,288.42 697.06,339.69 748.97,381.91 L 762.91 393.24 L 763.29 522.87 C763.68,655.45 763.83,660.48 767.65,676.00 C770.49,687.50 776.43,696.14 784.24,700.12 C787.68,701.87 788.08,702.47 787.81,705.30 L 787.50 708.50 L 776.54 709.18 C775.98,709.21 775.42,709.25 774.86,709.29 C772.64,709.43 770.59,709.59 768.64,709.77 L 768.64 709.77 C765.68,710.03 763.29,710.29 762.29,710.47 L 760.79 710.75 C749.79,712.57 737.79,716.51 706.29,727.37 C689.32,733.22 674.76,735.99 659.50,736.28 L 647.50 736.50 L 647.22 721.64 C646.95,707.10 646.88,706.69 644.06,702.64 C631.75,684.94 615.00,681.40 593.93,692.03 C587.71,695.18 580.54,700.62 573.15,707.64 C571.84,708.67 570.21,710.28 567.87,712.77 C566.34,714.39 564.78,716.12 563.20,717.90 C556.25,725.63 549.39,734.45 543.19,743.75 C540.90,747.19 538.77,750.14 537.73,751.34 C536.58,751.31 532.56,749.86 528.06,747.81 L 518.76 743.58 L 518.73 743.63 C473.72,722.92 406.94,693.41 336.25,663.00 L 303.00 648.70 L 303.00 454.93 L 305.40 450.20 C318.97,423.43 351.30,405.00 398.00,397.43 C417.21,394.31 451.99,394.44 478.02,397.52 C479.33,397.76 480.94,398.01 483.00,398.32 C488.23,399.09 493.04,399.79 493.69,399.86 C494.35,399.94 495.16,399.55 495.49,399.01 ZM 530.29 533.17 L 530.28 533.17 C527.66,536.87 524.63,540.37 521.00,544.00 C517.95,547.05 514.90,549.73 511.81,552.04 C505.41,556.73 498.63,560.00 490.98,562.10 L 490.98 562.10 C485.81,563.39 480.31,564.00 474.30,564.00 C459.61,564.00 446.64,559.35 436.68,550.80 C436.00,550.06 435.21,549.25 434.33,548.37 C431.05,545.07 427.26,540.30 425.10,536.82 L 425.10 536.82 C424.71,536.16 424.34,535.49 423.98,534.81 C422.28,531.62 420.69,529.01 420.44,529.00 L 420.44 529.00 C420.20,529.00 420.00,535.27 420.00,542.93 L 420.00 556.87 L 420.11 556.89 C420.08,563.96 420.05,572.11 420.03,581.00 L 420.00 581.00 L 420.00 622.00 C420.00,624.90 420.00,627.60 420.00,630.12 L 420.00 630.14 C419.99,634.70 419.99,638.65 420.00,642.08 L 420.00 691.24 L 423.72 688.37 C438.34,677.11 461.81,664.09 479.00,657.69 C496.27,651.27 515.94,647.49 535.07,646.49 C547.01,646.52 557.25,646.73 561.90,647.14 C568.45,647.71 577.68,649.34 584.80,651.04 C586.55,651.53 588.27,652.05 589.94,652.60 C612.35,660.10 631.73,672.76 642.59,686.98 C644.67,689.72 646.50,691.84 646.64,691.69 C646.78,691.55 646.63,645.89 646.29,590.22 L 645.68 489.02 L 639.41 481.19 C632.66,472.76 621.38,462.37 612.18,456.12 C606.06,451.96 599.09,448.18 591.61,444.89 C588.17,442.92 568.29,436.00 566.02,436.00 C565.93,436.00 565.86,436.00 565.78,436.01 C556.45,433.62 546.92,432.00 537.65,431.33 L 528.81 430.69 L 531.25 435.59 C532.60,438.29 534.94,443.88 536.45,448.00 C537.97,452.12 539.56,456.20 539.99,457.06 C540.41,457.88 540.81,458.91 541.18,460.10 C541.39,461.27 541.77,462.81 542.27,464.75 C542.44,465.38 542.59,466.01 542.73,466.64 C543.41,470.46 543.93,474.92 544.22,479.59 C544.30,481.77 544.35,484.20 544.36,487.00 C544.39,491.60 544.40,494.78 544.28,497.31 C543.99,502.34 543.22,504.99 541.16,511.00 C540.43,513.12 539.69,515.13 538.93,517.03 L 538.93 517.03 C536.45,523.15 533.68,528.35 530.29,533.17 ZM 481.11 360.53 L 475.50 359.87 L 487.12 371.18 C490.49,374.47 494.46,378.70 498.06,382.76 C501.02,386.28 504.13,390.10 506.79,393.47 C510.50,398.53 513.46,402.60 513.50,402.70 C513.54,402.81 518.89,404.52 525.38,406.49 C536.86,409.96 547.83,413.86 558.28,418.15 C564.83,420.87 571.23,423.79 577.71,427.01 C580.18,428.24 582.56,429.41 584.69,430.45 C604.81,441.02 622.49,453.34 637.50,467.29 L 645.50 474.73 L 645.79 462.11 C645.94,455.18 645.94,425.20 645.79,395.50 C645.50,341.56 645.50,341.49 643.20,336.51 C638.70,326.74 632.73,322.92 620.87,322.21 C607.08,321.39 594.07,325.02 549.00,342.27 C544.71,343.92 540.68,345.43 536.89,346.83 C520.85,352.62 507.39,356.92 499.00,358.94 C491.38,360.64 485.76,361.08 481.11,360.53 ZM 499.93 554.11 C502.87,552.65 505.56,551.14 508.03,549.52 C511.01,547.65 513.75,545.49 516.22,543.08 C519.91,539.54 522.92,535.54 525.41,530.88 C528.25,525.70 530.40,519.84 531.87,513.31 C534.46,502.70 534.99,489.60 533.59,476.99 C533.10,472.12 532.30,467.48 531.12,462.80 C530.60,460.64 530.01,458.53 529.36,456.50 C529.02,455.47 528.67,454.45 528.34,453.57 C526.72,448.91 524.71,444.05 522.26,438.75 C518.73,431.10 518.64,431.00 514.94,431.00 C507.91,431.00 487.72,435.01 477.44,438.45 C471.25,440.52 465.52,442.84 460.24,445.41 C459.47,445.76 458.64,446.17 457.72,446.63 C451.15,449.94 445.11,453.94 439.79,458.45 C433.50,463.74 428.35,469.67 424.32,476.25 C420.53,482.46 420.50,482.59 420.18,494.50 C419.78,509.57 422.04,521.36 427.36,531.25 C431.07,538.28 436.25,544.19 442.95,549.15 C443.63,549.65 444.32,550.14 445.01,550.61 L 445.01 550.61 C445.42,550.89 445.82,551.16 446.20,551.40 L 446.20 551.40 C452.43,555.42 458.83,557.87 465.95,559.00 C472.14,559.98 483.41,559.47 489.50,557.93 C491.97,557.31 494.32,556.54 496.73,555.53 L 496.74 555.53 C497.81,555.11 498.88,554.63 499.93,554.11 ZM 120.16 840.98 C88.33,803.05 62.07,760.55 42.32,714.73 C62.01,760.13 88.29,802.88 120.16,840.98 ZM 433.20 6.51 C395.01,12.48 357.95,22.64 322.45,36.81 C358.23,22.46 395.40,12.25 433.20,6.51 ZM 186.65 906.88 C181.25,902.44 175.93,897.89 170.71,893.23 C152.61,877.08 135.72,859.58 120.16,840.98 C140.19,864.86 162.44,886.93 186.65,906.88 Z" fill="rgb(190,144,0)"/>
<path d="M 0.14 781.75 C0.22,648.51 0.65,542.20 1.10,545.50 C1.56,548.80 2.66,558.70 3.55,567.50 C15.98,690.49 77.20,809.78 170.71,893.23 C254.88,968.36 363.37,1014.57 475.00,1022.86 C481.81,1023.37 387.32,1023.78 243.25,1023.86 L 0.00 1024.00 L 0.14 781.75 ZM 550.00 1022.89 C698.41,1011.09 832.73,937.56 921.49,819.50 C978.20,744.08 1013.95,651.33 1021.95,558.89 C1022.54,552.08 1023.17,544.92 1023.35,543.00 C1023.53,541.08 1023.75,648.51 1023.84,781.75 L 1024.00 1024.00 L 781.75 1023.86 C643.34,1023.78 544.00,1023.36 550.00,1022.89 ZM 0.00 242.17 L 0.00 0.00 L 242.25 0.14 C375.49,0.22 481.80,0.65 478.50,1.10 C475.20,1.56 465.52,2.63 457.00,3.50 C356.09,13.74 258.42,55.93 178.50,123.83 C165.77,134.64 134.96,165.48 123.87,178.50 C53.14,261.56 10.90,362.80 2.04,470.43 C1.46,477.54 0.76,483.57 0.49,483.84 C0.22,484.11 0.00,375.36 0.00,242.17 ZM 1022.64 473.14 C1018.31,401.84 993.11,320.62 954.97,255.00 C873.16,114.25 727.92,19.75 568.50,3.54 C559.70,2.64 549.58,1.54 546.00,1.09 C542.42,0.64 648.51,0.21 781.75,0.14 L 1024.00 0.00 L 1024.00 242.00 C1024.00,375.10 1023.84,484.00 1023.65,484.00 C1023.46,484.00 1023.00,479.11 1022.64,473.14 Z" fill="rgb(254,254,254)"/>
</g>
</svg>